<svg id="Logo_-_blue" data-name="Logo - blue" xmlns="http://www.w3.org/2000/svg" xmlns:xlink="http://www.w3.org/1999/xlink" width="158.5" height="70.464" viewBox="0 0 158.5 70.464">
  <defs>
    <clipPath id="clip-path">
      <rect id="Rectangle_1" data-name="Rectangle 1" width="158.5" height="70.464" fill="none"/>
    </clipPath>
  </defs>
  <g id="Group_1" data-name="Group 1" clip-path="url(#clip-path)">
    <path id="Path_1" data-name="Path 1" d="M0,46.821q4.8,0,9.607-.2c4.209-.178,6.478,2.468,6.477,5.862,0,3.356-2.267,6.24-6.477,6.418q-2.078.085-4.156.135v5.8Q2.725,64.9,0,64.9ZM8.905,51.2q-1.727.066-3.454.107v3.172q1.727-.041,3.454-.107a1.633,1.633,0,0,0,1.646-1.641A1.491,1.491,0,0,0,8.905,51.2" transform="translate(0 -27.841)" fill="#23aebc"/>
    <path id="Path_2" data-name="Path 2" d="M44.552,44.815q2.725-.2,5.451-.442v13.31q3.414-.307,6.828-.687v4.772q-6.139.679-12.279,1.129Z" transform="translate(-26.692 -26.504)" fill="#23aebc"/>
    <path id="Path_3" data-name="Path 3" d="M89.3,54.044q-3.454.5-6.909.943l-.7,2.421q-2.955.375-5.91.7Q79.1,48.7,82.417,39.232q3.428-.441,6.855-.935,3.319,8.564,6.639,17.085-2.955.461-5.91.892l-.7-2.23m-5.506-3.794q2.051-.271,4.1-.56Q86.87,46.648,85.844,43.6q-1.025,3.325-2.051,6.646" transform="translate(-45.4 -22.874)" fill="#23aebc"/>
    <path id="Path_4" data-name="Path 4" d="M125.6,42.14q-3.373-4.9-6.747-9.841,3.063-.463,6.126-.957,1.673,2.78,3.346,5.553,1.646-3.322,3.292-6.651,3.064-.519,6.126-1.056-3.346,6.035-6.693,12.05v7.184q-2.725.46-5.451.9V42.14" transform="translate(-71.207 -17.434)" fill="#23aebc"/>
    <path id="Path_5" data-name="Path 5" d="M0,102.518q4.8,0,9.607-.2c4.209-.178,6.478,2.468,6.477,5.862,0,3.356-2.267,6.24-6.477,6.418q-2.078.085-4.156.135v5.8Q2.725,120.6,0,120.6ZM8.905,106.9q-1.727.066-3.454.107v3.172q1.727-.041,3.454-.107a1.633,1.633,0,0,0,1.646-1.641A1.491,1.491,0,0,0,8.905,106.9" transform="translate(0 -61.108)" fill="#23aebc"/>
    <path id="Path_6" data-name="Path 6" d="M44.552,100.513q2.725-.2,5.451-.442v18.082q-2.726.245-5.451.442Z" transform="translate(-26.692 -59.772)" fill="#23aebc"/>
    <path id="Path_7" data-name="Path 7" d="M62.993,106.494c0-5.586,4.264-9.747,9.769-10.431,4.857-.607,7.233,1.8,8.312,4.149q-2.349,1.433-4.7,2.842a3.317,3.317,0,0,0-3.616-2.166,4.955,4.955,0,0,0-4.236,5.028c0,2.52,1.754,4.334,4.236,4.027a4.539,4.539,0,0,0,3.616-3.093q2.348.774,4.7,1.522a10.07,10.07,0,0,1-8.312,6.4c-5.5.684-9.768-2.719-9.769-8.274" transform="translate(-37.74 -57.32)" fill="#23aebc"/>
    <path id="Path_8" data-name="Path 8" d="M118.774,100.315l-1,1.512v5.015q-2.726.425-5.451.824,0-9.041,0-18.082,2.726-.4,5.451-.824v6.778q2.361-3.757,4.722-7.531,3.333-.544,6.666-1.115-3.4,4.783-6.8,9.541,3.548,4.261,7.1,8.491-3.319.568-6.639,1.113-2.023-2.854-4.047-5.72" transform="translate(-67.296 -51.9)" fill="#23aebc"/>
    <path id="Path_9" data-name="Path 9" d="M157.484,84.943q2.725-.469,5.451-.951V97.3q3.414-.6,6.828-1.215v4.772q-6.139,1.1-12.279,2.166Z" transform="translate(-94.352 -50.168)" fill="#23aebc"/>
    <path id="Path_10" data-name="Path 10" d="M193.557,76.388q6.828-1.226,13.655-2.436v4.554q-4.1.72-8.2,1.458v2.115q4.008-.718,8.015-1.424v4.554q-4.008.7-8.015,1.424v2.3q4.1-.735,8.2-1.458v4.554q-6.827,1.2-13.655,2.436Z" transform="translate(-115.964 -44.171)" fill="#23aebc"/>
    <path id="Path_11" data-name="Path 11" d="M233.667,70.033q5.465-.949,10.93-1.837c3.725-.6,5.343,1.657,5.343,3.769a4.82,4.82,0,0,1-3.076,4.626c1.942-.008,3.426,1.556,3.427,3.887a5.842,5.842,0,0,1-5.316,5.739q-5.654.909-11.308,1.9V70.033m9.661,5.092a1.4,1.4,0,0,0,1.08-1.341.917.917,0,0,0-1.08-.936q-2.105.343-4.21.7v2.277q2.105-.354,4.21-.7m.162,6.886a1.453,1.453,0,0,0,1.268-1.425,1.022,1.022,0,0,0-1.268-1.042q-2.186.356-4.372.724v2.467q2.186-.368,4.372-.724" transform="translate(-139.995 -40.674)" fill="#23aebc"/>
    <path id="Path_12" data-name="Path 12" d="M289.249,77.164q-3.454.422-6.908.9l-.7,2.43q-2.955.414-5.91.863,3.319-9.544,6.639-19.046,3.428-.475,6.855-.9,3.32,8.635,6.639,17.329-2.955.307-5.91.664l-.7-2.246m-5.506-3.844q2.051-.278,4.1-.536-1.025-3.057-2.051-6.108Q284.769,70,283.743,73.32" transform="translate(-165.194 -36.684)" fill="#23aebc"/>
    <path id="Path_13" data-name="Path 13" d="M328.36,58.551q2.725-.275,5.451-.505V71.357q3.414-.287,6.827-.493v4.772q-6.139.368-12.279,1Z" transform="translate(-196.727 -34.67)" fill="#23aebc"/>
    <path id="Path_14" data-name="Path 14" d="M364.433,56.186q2.725-.141,5.451-.224V69.273q3.414-.1,6.828-.107v4.772q-6.139,0-12.279.331Z" transform="translate(-218.339 -33.426)" fill="#23aebc"/>
    <path id="Path_15" data-name="Path 15" d="M226.1,160.4a2.4,2.4,0,0,1,2.887,2.4,3.644,3.644,0,0,1-2.887,3.4,2.392,2.392,0,0,1-2.888-2.394A3.65,3.65,0,0,1,226.1,160.4" transform="translate(-133.732 -95.783)" fill="#e0381a"/>
    <path id="Path_16" data-name="Path 16" d="M241.183,133.316a11.284,11.284,0,0,1,9.769-10.966c4.857-.767,7.232,1.664,8.312,4q-2.348,1.435-4.7,2.891a3.2,3.2,0,0,0-3.616-2.067,5.214,5.214,0,0,0-4.237,5.212c0,2.521,1.753,4.237,4.237,3.843a4.736,4.736,0,0,0,3.616-3.192q2.348.727,4.7,1.473a10.458,10.458,0,0,1-8.312,6.544c-5.505.874-9.769-2.179-9.769-7.739" transform="translate(-144.498 -72.992)" fill="#23aebc"/>
    <path id="Path_17" data-name="Path 17" d="M297.939,115.86c5.56-.664,9.851,2.763,9.85,8.319s-4.291,9.723-9.85,10.387-9.85-2.5-9.849-8.063a10.854,10.854,0,0,1,9.849-10.642m0,4.825a4.953,4.953,0,0,0-4.317,5.064,3.71,3.71,0,0,0,4.317,3.99,4.9,4.9,0,0,0,4.318-5.015c0-2.52-1.7-4.35-4.318-4.039" transform="translate(-172.601 -69.153)" fill="#23aebc"/>
    <path id="Path_18" data-name="Path 18" d="M357.986,118.13q-2.011,5.754-4.021,11.542-1.214.049-2.428.11-2.011-5.606-4.022-11.182v11.413q-2.725.176-5.451.406V112.337q3.764-.315,7.529-.533,1.578,4.518,3.157,9.055,1.58-4.68,3.158-9.34,3.765-.122,7.529-.124v18.082q-2.726,0-5.451.066Z" transform="translate(-204.938 -66.535)" fill="#23aebc"/>
  </g>
</svg>
